<mxfile host="Electron" modified="2023-11-16T11:11:01.915Z" agent="Mozilla/5.0 (Windows NT 10.0; Win64; x64) AppleWebKit/537.36 (KHTML, like Gecko) draw.io/22.0.2 Chrome/114.0.5735.289 Electron/25.8.4 Safari/537.36" etag="xCAzZRvYD4AhbMFBuUsc" version="22.0.2" type="device">
  <diagram name="Seite-1" id="97bVjTDoErHe1JF0prkn">
    <mxGraphModel dx="757" dy="441" grid="1" gridSize="10" guides="1" tooltips="1" connect="1" arrows="1" fold="1" page="1" pageScale="1" pageWidth="827" pageHeight="1169" math="0" shadow="0">
      <root>
        <mxCell id="0" />
        <mxCell id="1" parent="0" />
        <mxCell id="V9W67WmrlvlskXoTmzSh-21" style="edgeStyle=orthogonalEdgeStyle;rounded=0;orthogonalLoop=1;jettySize=auto;html=1;" edge="1" parent="1" source="V9W67WmrlvlskXoTmzSh-1" target="V9W67WmrlvlskXoTmzSh-3">
          <mxGeometry relative="1" as="geometry" />
        </mxCell>
        <mxCell id="V9W67WmrlvlskXoTmzSh-1" value="Start" style="strokeWidth=1;html=1;shape=mxgraph.flowchart.terminator;whiteSpace=wrap;" vertex="1" parent="1">
          <mxGeometry x="150" y="40" width="100" height="40" as="geometry" />
        </mxCell>
        <mxCell id="V9W67WmrlvlskXoTmzSh-2" value="Ende" style="strokeWidth=1;html=1;shape=mxgraph.flowchart.terminator;whiteSpace=wrap;" vertex="1" parent="1">
          <mxGeometry x="150" y="730" width="100" height="40" as="geometry" />
        </mxCell>
        <mxCell id="V9W67WmrlvlskXoTmzSh-22" style="edgeStyle=orthogonalEdgeStyle;rounded=0;orthogonalLoop=1;jettySize=auto;html=1;" edge="1" parent="1" source="V9W67WmrlvlskXoTmzSh-3" target="V9W67WmrlvlskXoTmzSh-4">
          <mxGeometry relative="1" as="geometry" />
        </mxCell>
        <mxCell id="V9W67WmrlvlskXoTmzSh-3" value="int anzahlPersonen" style="rounded=0;whiteSpace=wrap;html=1;" vertex="1" parent="1">
          <mxGeometry x="140" y="100" width="120" height="30" as="geometry" />
        </mxCell>
        <mxCell id="V9W67WmrlvlskXoTmzSh-23" style="edgeStyle=orthogonalEdgeStyle;rounded=0;orthogonalLoop=1;jettySize=auto;html=1;" edge="1" parent="1" source="V9W67WmrlvlskXoTmzSh-4" target="V9W67WmrlvlskXoTmzSh-5">
          <mxGeometry relative="1" as="geometry" />
        </mxCell>
        <mxCell id="V9W67WmrlvlskXoTmzSh-4" value="float ticketPreis, gesamtpreis" style="rounded=0;whiteSpace=wrap;html=1;" vertex="1" parent="1">
          <mxGeometry x="140" y="150" width="120" height="30" as="geometry" />
        </mxCell>
        <mxCell id="V9W67WmrlvlskXoTmzSh-27" style="edgeStyle=orthogonalEdgeStyle;rounded=0;orthogonalLoop=1;jettySize=auto;html=1;" edge="1" parent="1" source="V9W67WmrlvlskXoTmzSh-5" target="V9W67WmrlvlskXoTmzSh-6">
          <mxGeometry relative="1" as="geometry" />
        </mxCell>
        <mxCell id="V9W67WmrlvlskXoTmzSh-5" value="float rabatt = 0.9" style="rounded=0;whiteSpace=wrap;html=1;" vertex="1" parent="1">
          <mxGeometry x="140" y="200" width="120" height="30" as="geometry" />
        </mxCell>
        <mxCell id="V9W67WmrlvlskXoTmzSh-29" style="edgeStyle=orthogonalEdgeStyle;rounded=0;orthogonalLoop=1;jettySize=auto;html=1;" edge="1" parent="1" source="V9W67WmrlvlskXoTmzSh-6" target="V9W67WmrlvlskXoTmzSh-7">
          <mxGeometry relative="1" as="geometry" />
        </mxCell>
        <mxCell id="V9W67WmrlvlskXoTmzSh-6" value="ausgabe(&quot;Geben Sie bitte den Einzelpreis pro Ticket ein (in Euro): &quot;)" style="shape=parallelogram;perimeter=parallelogramPerimeter;whiteSpace=wrap;html=1;fixedSize=1;" vertex="1" parent="1">
          <mxGeometry x="75" y="250" width="250" height="40" as="geometry" />
        </mxCell>
        <mxCell id="V9W67WmrlvlskXoTmzSh-31" style="edgeStyle=orthogonalEdgeStyle;rounded=0;orthogonalLoop=1;jettySize=auto;html=1;" edge="1" parent="1" source="V9W67WmrlvlskXoTmzSh-7" target="V9W67WmrlvlskXoTmzSh-8">
          <mxGeometry relative="1" as="geometry" />
        </mxCell>
        <mxCell id="V9W67WmrlvlskXoTmzSh-7" value="ticketPreis = eingabe()" style="shape=parallelogram;perimeter=parallelogramPerimeter;whiteSpace=wrap;html=1;fixedSize=1;" vertex="1" parent="1">
          <mxGeometry x="125" y="310" width="150" height="30" as="geometry" />
        </mxCell>
        <mxCell id="V9W67WmrlvlskXoTmzSh-32" style="edgeStyle=orthogonalEdgeStyle;rounded=0;orthogonalLoop=1;jettySize=auto;html=1;" edge="1" parent="1" source="V9W67WmrlvlskXoTmzSh-8" target="V9W67WmrlvlskXoTmzSh-9">
          <mxGeometry relative="1" as="geometry" />
        </mxCell>
        <mxCell id="V9W67WmrlvlskXoTmzSh-8" value="ausgabe(&quot;Geben Sie bitte die Anzahl der Personen ein:&amp;nbsp;&quot;)" style="shape=parallelogram;perimeter=parallelogramPerimeter;whiteSpace=wrap;html=1;fixedSize=1;" vertex="1" parent="1">
          <mxGeometry x="75" y="360" width="250" height="40" as="geometry" />
        </mxCell>
        <mxCell id="V9W67WmrlvlskXoTmzSh-33" style="edgeStyle=orthogonalEdgeStyle;rounded=0;orthogonalLoop=1;jettySize=auto;html=1;" edge="1" parent="1" source="V9W67WmrlvlskXoTmzSh-9" target="V9W67WmrlvlskXoTmzSh-10">
          <mxGeometry relative="1" as="geometry" />
        </mxCell>
        <mxCell id="V9W67WmrlvlskXoTmzSh-9" value="&amp;nbsp; &amp;nbsp; anzahlPersonen = eingabe()" style="shape=parallelogram;perimeter=parallelogramPerimeter;whiteSpace=wrap;html=1;fixedSize=1;" vertex="1" parent="1">
          <mxGeometry x="125" y="420" width="150" height="30" as="geometry" />
        </mxCell>
        <mxCell id="V9W67WmrlvlskXoTmzSh-11" style="edgeStyle=orthogonalEdgeStyle;rounded=0;orthogonalLoop=1;jettySize=auto;html=1;" edge="1" parent="1" source="V9W67WmrlvlskXoTmzSh-10" target="V9W67WmrlvlskXoTmzSh-12">
          <mxGeometry relative="1" as="geometry">
            <mxPoint x="200" y="570" as="targetPoint" />
          </mxGeometry>
        </mxCell>
        <mxCell id="V9W67WmrlvlskXoTmzSh-15" value="wahr" style="edgeLabel;html=1;align=center;verticalAlign=middle;resizable=0;points=[];" vertex="1" connectable="0" parent="V9W67WmrlvlskXoTmzSh-11">
          <mxGeometry x="-0.06" relative="1" as="geometry">
            <mxPoint as="offset" />
          </mxGeometry>
        </mxCell>
        <mxCell id="V9W67WmrlvlskXoTmzSh-13" style="edgeStyle=orthogonalEdgeStyle;rounded=0;orthogonalLoop=1;jettySize=auto;html=1;" edge="1" parent="1" source="V9W67WmrlvlskXoTmzSh-10" target="V9W67WmrlvlskXoTmzSh-14">
          <mxGeometry relative="1" as="geometry">
            <mxPoint x="370" y="500" as="targetPoint" />
          </mxGeometry>
        </mxCell>
        <mxCell id="V9W67WmrlvlskXoTmzSh-16" value="falsch" style="edgeLabel;html=1;align=center;verticalAlign=middle;resizable=0;points=[];" vertex="1" connectable="0" parent="V9W67WmrlvlskXoTmzSh-13">
          <mxGeometry x="-0.419" relative="1" as="geometry">
            <mxPoint as="offset" />
          </mxGeometry>
        </mxCell>
        <mxCell id="V9W67WmrlvlskXoTmzSh-10" value="anzahlPersonen &amp;lt;= 4" style="strokeWidth=1;html=1;shape=mxgraph.flowchart.decision;whiteSpace=wrap;" vertex="1" parent="1">
          <mxGeometry x="110" y="470" width="180" height="60" as="geometry" />
        </mxCell>
        <mxCell id="V9W67WmrlvlskXoTmzSh-18" style="edgeStyle=orthogonalEdgeStyle;rounded=0;orthogonalLoop=1;jettySize=auto;html=1;" edge="1" parent="1" source="V9W67WmrlvlskXoTmzSh-12" target="V9W67WmrlvlskXoTmzSh-17">
          <mxGeometry relative="1" as="geometry" />
        </mxCell>
        <mxCell id="V9W67WmrlvlskXoTmzSh-12" value="gesamtpreis = anzahlPersonen * ticketPreis" style="rounded=0;whiteSpace=wrap;html=1;" vertex="1" parent="1">
          <mxGeometry x="140" y="570" width="120" height="50" as="geometry" />
        </mxCell>
        <mxCell id="V9W67WmrlvlskXoTmzSh-19" style="edgeStyle=orthogonalEdgeStyle;rounded=0;orthogonalLoop=1;jettySize=auto;html=1;" edge="1" parent="1" source="V9W67WmrlvlskXoTmzSh-14" target="V9W67WmrlvlskXoTmzSh-17">
          <mxGeometry relative="1" as="geometry">
            <Array as="points">
              <mxPoint x="430" y="640" />
              <mxPoint x="200" y="640" />
            </Array>
          </mxGeometry>
        </mxCell>
        <mxCell id="V9W67WmrlvlskXoTmzSh-14" value="gesamtpreis = anzahlPersonen * ticketPreis * rabatt" style="rounded=0;whiteSpace=wrap;html=1;" vertex="1" parent="1">
          <mxGeometry x="370" y="570" width="120" height="50" as="geometry" />
        </mxCell>
        <mxCell id="V9W67WmrlvlskXoTmzSh-20" style="edgeStyle=orthogonalEdgeStyle;rounded=0;orthogonalLoop=1;jettySize=auto;html=1;" edge="1" parent="1" source="V9W67WmrlvlskXoTmzSh-17" target="V9W67WmrlvlskXoTmzSh-2">
          <mxGeometry relative="1" as="geometry" />
        </mxCell>
        <mxCell id="V9W67WmrlvlskXoTmzSh-17" value="ausgabe: &quot;Gesamtpreis: &quot;, gesamtpreis, &quot; Euro&quot;" style="shape=parallelogram;perimeter=parallelogramPerimeter;whiteSpace=wrap;html=1;fixedSize=1;" vertex="1" parent="1">
          <mxGeometry x="112.5" y="660" width="175" height="40" as="geometry" />
        </mxCell>
      </root>
    </mxGraphModel>
  </diagram>
</mxfile>
